<?xml version="1.0" encoding="utf-8"?>
<!-- Generator: Adobe Illustrator 16.0.0, SVG Export Plug-In . SVG Version: 6.00 Build 0)  -->
<!DOCTYPE svg PUBLIC "-//W3C//DTD SVG 1.1//EN" "http://www.w3.org/Graphics/SVG/1.1/DTD/svg11.dtd">
<svg version="1.1" id="Layer_1" xmlns="http://www.w3.org/2000/svg" xmlns:xlink="http://www.w3.org/1999/xlink" x="0px" y="0px"
	 width="16px" height="14.021px" viewBox="0 0 16 14.021" enable-background="new 0 0 16 14.021" xml:space="preserve">
<g id="Multimedia-12">
	<path fill="#605E5E" d="M3,12h6c0.542,0,1-0.458,1-1h2c0,1.65-1.35,3-3,3H3c-1.65,0-3-1.35-3-3V7c0-1.65,1.35-3,3-3v2
		C2.458,6,2,6.458,2,7v4C2,11.542,2.458,12,3,12z"/>
	<path fill="#605E5E" d="M16,7V3c0-1.65-1.35-3-3-3H7C5.35,0,4,1.35,4,3v4c0,1.65,1.35,3,3,3h6C14.65,10,16,8.65,16,7z M14,7
		c0,0.542-0.458,1-1,1H7C6.458,8,6,7.542,6,7V3c0-0.542,0.458-1,1-1h6c0.542,0,1,0.458,1,1V7z"/>
</g>
</svg>
