<?xml version="1.0" encoding="utf-8"?>
<!-- Generator: Adobe Illustrator 16.0.0, SVG Export Plug-In . SVG Version: 6.00 Build 0)  -->
<!DOCTYPE svg PUBLIC "-//W3C//DTD SVG 1.1//EN" "http://www.w3.org/Graphics/SVG/1.1/DTD/svg11.dtd">
<svg version="1.1" id="Layer_1" xmlns="http://www.w3.org/2000/svg" xmlns:xlink="http://www.w3.org/1999/xlink" x="0px" y="0px"
	 width="70px" height="70px" viewBox="0 0 70 70" enable-background="new 0 0 70 70" xml:space="preserve">
<symbol  id="Content-18" viewBox="-8 -5.031 16 10.062">
	<polygon fill="#7F9E71" points="2,-3.031 6,-3.031 6,-0.031 2,-0.031 	"/>
	<polygon fill="#7F9E71" points="1,-0.031 -4,-0.031 -4,-1.031 1,-1.031 	"/>
	<polygon fill="#7F9E71" points="1,-2.031 -4,-2.031 -4,-3.031 1,-3.031 	"/>
	<polygon fill="#7F9E71" points="6,2.969 -4,2.969 -4,0.969 6,0.969 	"/>
	<path fill="#7F9E71" d="M-6,5.031v-2h-2v-6.062c0-1.104,0.898-2,2-2H6c1.104,0,2,0.896,2,2v8.062H-6z M7-3.031c0-0.55-0.449-1-1-1
		H-6c-0.549,0-1,0.45-1,1v5.062h1v-5.062h1v7.062H7V-3.031z"/>
</symbol>
<g id="Layer_2" display="none">
	<rect display="inline" fill="#3A9A00" width="70" height="70"/>
</g>
<g id="Layer_1_1_">
	
		<use xlink:href="#Content-18"  width="16" height="10.062" id="XMLID_2_" x="-8" y="-5.031" transform="matrix(2.8125 0 0 -2.8125 35 35)" overflow="visible"/>
</g>
</svg>
