<?xml version="1.0" encoding="utf-8"?>
<!-- Generator: Adobe Illustrator 16.0.0, SVG Export Plug-In . SVG Version: 6.00 Build 0)  -->
<!DOCTYPE svg PUBLIC "-//W3C//DTD SVG 1.1//EN" "http://www.w3.org/Graphics/SVG/1.1/DTD/svg11.dtd">
<svg version="1.1" id="Layer_1" xmlns="http://www.w3.org/2000/svg" xmlns:xlink="http://www.w3.org/1999/xlink" x="0px" y="0px"
	 width="46px" height="46px" viewBox="0 0 46 46" enable-background="new 0 0 46 46" xml:space="preserve">
<g id="_x3C_Background_x3E__xA0_0_xA0_Image_1_" display="none">
	
		<image display="inline" overflow="visible" enable-background="new    " width="46" height="46" id="_x3C_Background_x3E__xA0_0_xA0_Image" xlink:href="828917BC3CA75AAD.jpeg" >
	</image>
</g>
<g id="Icons_1_">
	<g id="Image_xA0_9_1_">
		<g id="Twitter_copy">
			<g>
				<ellipse fill="#898D90" cx="22.919" cy="23" rx="22.922" ry="23.003"/>
			</g>
		</g>
		<g id="Layer_1_xA0_Image_1_">
			<g>
				<g>
					<path fill="#FFFFFF" d="M17.813,10c3.393,0,6.292,2.212,8.505,8.209C29.268,10.688,28.382,10,30.152,10h2.113
						c0.59,0,1.131,0.098,1.131,0.688c0,0.393-2.262,7.767-4.521,12.732c-0.197,0.393-0.395,0.787-0.395,1.229
						c0,0.443,1.377,4.719,3.44,4.719c1.573,0,0.591-1.424,2.558-1.424h1.229c0.59,0,1.13,0.099,1.13,0.885
						c0,1.816-1.621,4.914-4.916,4.914c-2.408,0-4.474-1.572-5.997-5.062h-0.049c-2.112,3.049-4.817,5.062-8.062,5.062
						c-3.44,0-8.651-2.506-8.651-11.945C9.162,14.081,13.095,10,17.813,10z M14.913,28.386c0.787,0.641,1.771,0.982,2.803,0.982
						c3.244,0,5.407-4.08,6.392-5.948c-1.278-4.276-2.558-9.045-6.342-9.045c-1.18,0-3.146,0.492-4.129,2.753
						c-0.64,1.475-0.787,3.146-0.787,4.769C12.849,24.207,13.144,26.961,14.913,28.386z"/>
				</g>
			</g>
		</g>
	</g>
</g>
</svg>
