<?xml version="1.0" encoding="utf-8"?>
<!-- Generator: Adobe Illustrator 16.0.0, SVG Export Plug-In . SVG Version: 6.00 Build 0)  -->
<!DOCTYPE svg PUBLIC "-//W3C//DTD SVG 1.1//EN" "http://www.w3.org/Graphics/SVG/1.1/DTD/svg11.dtd">
<svg version="1.1" id="Layer_1" xmlns="http://www.w3.org/2000/svg" xmlns:xlink="http://www.w3.org/1999/xlink" x="0px" y="0px"
	 width="46px" height="46px" viewBox="0 0 46 46" enable-background="new 0 0 46 46" xml:space="preserve">
<g id="_x3C_Background_x3E__xA0_0_xA0_Image_1_" display="none">
	
		<image display="inline" overflow="visible" enable-background="new    " width="46" height="46" id="_x3C_Background_x3E__xA0_0_xA0_Image" xlink:href="931F65A234E36854.jpeg" >
	</image>
</g>
<g id="Icons_1_">
	<g id="Twitter_3_">
		<g id="Twitter">
			<g>
				<ellipse fill="#4B90B2" cx="22.923" cy="23.003" rx="22.923" ry="23.003"/>
			</g>
		</g>
		<path id="Bird" fill="#FFFFFF" d="M27.172,9.813c-2.979,1.073-4.863,3.838-4.648,6.867l0.072,1.168l-1.193-0.143
			c-4.339-0.548-8.13-2.408-11.348-5.531l-1.574-1.55l-0.405,1.145c-0.858,2.551-0.31,5.245,1.478,7.057
			c0.954,1.001,0.739,1.145-0.906,0.548c-0.572-0.19-1.073-0.333-1.121-0.262c-0.167,0.167,0.405,2.336,0.858,3.195
			c0.62,1.191,1.884,2.36,3.267,3.052l1.168,0.549l-1.383,0.023c-1.335,0-1.383,0.022-1.24,0.523c0.477,1.55,2.361,3.195,4.459,3.91
			l1.478,0.501l-1.288,0.763c-1.907,1.098-4.148,1.717-6.39,1.766c-1.073,0.022-1.955,0.119-1.955,0.189
			c0,0.238,2.909,1.573,4.602,2.1c5.079,1.549,11.11,0.881,15.64-1.766c3.219-1.884,6.438-5.627,7.938-9.251
			c0.812-1.931,1.621-5.46,1.621-7.152c0-1.097,0.071-1.24,1.407-2.551c0.786-0.763,1.524-1.598,1.669-1.836
			c0.238-0.453,0.214-0.453-1.002-0.048c-2.025,0.715-2.312,0.62-1.312-0.453c0.74-0.763,1.623-2.146,1.623-2.551
			c0-0.072-0.358,0.048-0.765,0.262c-0.429,0.238-1.383,0.596-2.098,0.811l-1.288,0.405l-1.168-0.787
			c-0.645-0.429-1.551-0.906-2.026-1.049C30.129,9.384,28.27,9.432,27.172,9.813z"/>
	</g>
</g>
</svg>
