<?xml version="1.0" encoding="utf-8"?>
<!-- Generator: Adobe Illustrator 16.0.0, SVG Export Plug-In . SVG Version: 6.00 Build 0)  -->
<!DOCTYPE svg PUBLIC "-//W3C//DTD SVG 1.1//EN" "http://www.w3.org/Graphics/SVG/1.1/DTD/svg11.dtd">
<svg version="1.1" id="Layer_1" xmlns="http://www.w3.org/2000/svg" xmlns:xlink="http://www.w3.org/1999/xlink" x="0px" y="0px"
	 width="70px" height="70px" viewBox="0 0 70 70" enable-background="new 0 0 70 70" xml:space="preserve">
<symbol  id="Design-23" viewBox="-8 -8 16 16">
	<path fill="#9B709B" d="M0.125,8V-8H8V8H0.125z M7.125-7H1V7h6.125V-7z"/>
	<polygon fill="#9B709B" points="5,3 2,3 2,2 5,2 	"/>
	<polygon fill="#9B709B" points="3,-3 2,-3 2,-4 3,-4 	"/>
	<polygon fill="#9B709B" points="3,5 2,5 2,4 3,4 	"/>
	<polygon fill="#9B709B" points="3,1 2,1 2,0 3,0 	"/>
	<polygon fill="#9B709B" points="5,-1 2,-1 2,-2 5,-2 	"/>
	<polygon fill="#9B709B" points="5,-5 2,-5 2,-6 5,-6 	"/>
	<polygon fill="#9B709B" points="-8,4 -2,4 -5,8 	"/>
	<polygon fill="#9B709B" points="-8,-6 -7,-6 -7,2 -6,2 -6,-6 -4,-6 -4,2 -3,2 -3,-6 -2,-6 -2,3 -8,3 	"/>
	<path fill="#9B709B" d="M-8-7c0-0.553,0.447-1,1-1h4c0.553,0,1,0.447,1,1v1h-6V-7z"/>
</symbol>
<rect display="none" fill="#0087A5" width="70" height="70"/>
<use xlink:href="#Design-23"  width="16" height="16" id="XMLID_1_" x="-8" y="-8" transform="matrix(2.8125 0 0 -2.8125 35 35)" overflow="visible"/>
</svg>
