<?xml version="1.0" encoding="utf-8"?>
<!-- Generator: Adobe Illustrator 16.0.0, SVG Export Plug-In . SVG Version: 6.00 Build 0)  -->
<!DOCTYPE svg PUBLIC "-//W3C//DTD SVG 1.1//EN" "http://www.w3.org/Graphics/SVG/1.1/DTD/svg11.dtd">
<svg version="1.1" id="Icons_1_" xmlns="http://www.w3.org/2000/svg" xmlns:xlink="http://www.w3.org/1999/xlink" x="0px" y="0px"
	 width="46px" height="46px" viewBox="0 0 46 46" enable-background="new 0 0 46 46" xml:space="preserve">
<g id="Github_3_">
	<g id="Github">
		<g>
			<ellipse fill="#333333" cx="22.96" cy="23" rx="22.922" ry="23.003"/>
		</g>
	</g>
	<g id="Github_1_">
		<g>
			<path fill="#FFFFFF" d="M31.273,7.955c-2.688,1.691-5.459,0.266-7.457,0c-8.818-1.167-11.623,9.189-5.195,13.342
				c-1.656,0.864-1.547,5.252,0.224,5.88c-4.172,0.48-4.95,6.401-2.709,8.813c2.721,2.939,11.102,2.744,13.555,0
				c1.715-1.913,1.953-5.862,0.453-7.684c-1.369-1.662-8.243-1.916-8.135-4.524c0.075-1.824,2.561-1.536,4.067-2.261
				c2.837-1.362,4.503-5.447,3.387-8.595c0.636-0.118,1.175-0.329,1.81-0.447V7.955L31.273,7.955z M26.527,31.698
				c0.293,3.25-6.245,3.395-7.002,1.13c-0.638-1.909,0.152-2.448,2.031-2.938C23.684,29.33,26.331,29.521,26.527,31.698z
				 M24.721,17.451c-1.084,0.81-3.223,0.891-4.29,0C17.12,10.201,28.031,10.722,24.721,17.451z"/>
		</g>
	</g>
</g>
</svg>
