<?xml version="1.0" encoding="utf-8"?>
<!-- Generator: Adobe Illustrator 16.0.0, SVG Export Plug-In . SVG Version: 6.00 Build 0)  -->
<!DOCTYPE svg PUBLIC "-//W3C//DTD SVG 1.1//EN" "http://www.w3.org/Graphics/SVG/1.1/DTD/svg11.dtd">
<svg version="1.1" id="Icons_1_" xmlns="http://www.w3.org/2000/svg" xmlns:xlink="http://www.w3.org/1999/xlink" x="0px" y="0px"
	 width="46px" height="46px" viewBox="0 0 46 46" enable-background="new 0 0 46 46" xml:space="preserve">
<symbol  id="Communication-53" viewBox="-8 -5 16 10">
	<polygon fill="#FFFFFF" points="7.141,4.972 7,5 -7,5 -7.086,4.982 0.001,-1.331 	"/>
	<path fill="#FFFFFF" d="M7.932,4.336L2.891-0.115L7.867-4.47C7.945-4.328,8-4.173,8-4v8C8,4.119,7.971,4.229,7.932,4.336z"/>
	<path fill="#FFFFFF" d="M-7.922,4.386C-7.971,4.267-8,4.138-8,4v-8c0-0.146,0.035-0.282,0.092-0.407l5.023,4.307L-7.922,4.386z"/>
	<polygon fill="#FFFFFF" points="-0.003,-2.669 -2.131,-0.771 -7.053,-4.99 -7,-5 6.955,-5 2.135,-0.782 	"/>
</symbol>
<g id="Github_3_">
	<g id="Github">
		<g>
			<ellipse fill="#77AF46" cx="22.96" cy="23" rx="22.922" ry="23.003"/>
		</g>
	</g>
</g>
<use xlink:href="#Communication-53"  width="16" height="10" id="XMLID_1_" x="-8" y="-5" transform="matrix(1.5717 0 0 -1.5717 23 23)" overflow="visible"/>
</svg>
