<?xml version="1.0" encoding="utf-8"?>
<!-- Generator: Adobe Illustrator 16.0.0, SVG Export Plug-In . SVG Version: 6.00 Build 0)  -->
<!DOCTYPE svg PUBLIC "-//W3C//DTD SVG 1.1//EN" "http://www.w3.org/Graphics/SVG/1.1/DTD/svg11.dtd">
<svg version="1.1" id="Layer_1" xmlns="http://www.w3.org/2000/svg" xmlns:xlink="http://www.w3.org/1999/xlink" x="0px" y="0px"
	 width="70px" height="70px" viewBox="0 0 70 70" enable-background="new 0 0 70 70" xml:space="preserve">
<symbol  id="Health-6" viewBox="-6.625 -8 13.25 16">
	<path fill="#70889B" d="M0.5,5C1.328,5,2,5.672,2,6.5C2,7.33,1.328,8,0.5,8S-1,7.33-1,6.5C-1,5.672-0.328,5,0.5,5z"/>
	<path fill="#70889B" d="M-4,5c0.553,0,1,0.447,1,1s-0.447,1-1,1s-1-0.447-1-1S-4.553,5-4,5z"/>
	<path fill="#70889B" d="M4,4c0.553,0,1,0.447,1,1S4.553,6,4,6S3,5.553,3,5S3.447,4,4,4z"/>
	<path fill="#70889B" d="M6.514-7.125L2.486,0.128C2.379,0.318,2.201,0.486,2,0.631V2.25c0.55,0,1,0.395,1,0.875C3,3.607,2.55,4,2,4
		h-4c-0.55,0-1-0.393-1-0.875c0-0.48,0.45-0.875,1-0.875V0.631c-0.201-0.145-0.379-0.312-0.486-0.503l-4.028-7.253
		C-6.781-7.605-6.55-8-6-8H6C6.55-8,6.781-7.605,6.514-7.125z M-4.444-6l1.111,2h6.667l1.109-2H-4.444z"/>
</symbol>
<rect display="none" fill="#A22D00" width="70" height="70"/>
<use xlink:href="#Health-6"  width="13.25" height="16" id="XMLID_1_" x="-6.625" y="-8" transform="matrix(2.8125 0 0 -2.8125 35 35)" overflow="visible"/>
</svg>
